<?xml version="1.0" standalone="no"?><!DOCTYPE svg PUBLIC "-//W3C//DTD SVG 1.1//EN" "http://www.w3.org/Graphics/SVG/1.1/DTD/svg11.dtd"><svg t="1518061605865" class="icon" style="" viewBox="0 0 1024 1024" version="1.1" xmlns="http://www.w3.org/2000/svg" p-id="1117" xmlns:xlink="http://www.w3.org/1999/xlink" width="24" height="24"><defs><style type="text/css"></style></defs><path d="M365.705588 438.766069c21.087271 21.078061 46.76407 38.233789 74.231655 49.605791 27.497261 11.402701 57.782008 17.428951 87.581708 17.428951 29.798676 0 60.083423-6.027274 87.561241-17.428951 27.487028-11.370978 53.163827-28.52773 74.250074-49.605791 21.068851-21.065781 38.22458-46.741557 49.605791-74.240865 11.392468-27.489074 17.420765-57.772798 17.420765-87.569428 0.001023-29.77821-6.019087-60.065004-17.420765-87.562265-11.360745-27.466562-28.516474-53.143361-49.605791-74.252121-21.042245-21.044292-46.718021-38.191834-74.238818-49.602721-55.020104-22.783913-120.126938-22.783913-175.146019 0-27.51875 11.410887-53.192479 28.558429-74.251098 49.602721-21.063735 21.098527-38.210253 46.774303-49.581232 74.240865-11.401678 27.528983-17.432021 57.805544-17.432021 87.573521 0 29.785374 6.03239 60.058864 17.432021 87.561241C327.493288 392.035768 344.650039 417.711544 365.705588 438.766069z" p-id="1118" fill="#5AD0F6"></path><path d="M710.886211 558.12655 344.144526 558.12655c-106.689904 0-193.487759 86.797855-193.487759 193.500039 0 106.697067 86.796832 193.493899 193.487759 193.493899l366.742708 0c106.698091 0 193.496969-86.796832 193.496969-193.493899C904.38318 644.925429 817.584302 558.12655 710.886211 558.12655z" p-id="1119" fill="#5AD0F6"></path></svg>