<?xml version="1.0" standalone="no"?><!DOCTYPE svg PUBLIC "-//W3C//DTD SVG 1.1//EN" "http://www.w3.org/Graphics/SVG/1.1/DTD/svg11.dtd"><svg t="1499781910608" class="icon" style="" viewBox="0 0 1024 1024" version="1.1" xmlns="http://www.w3.org/2000/svg" p-id="2501" xmlns:xlink="http://www.w3.org/1999/xlink" width="16" height="16"><defs><style type="text/css"></style></defs><path d="M897.525 430.976c-12.863 8.659-16.275 25.986-7.612 38.849C899.275 483.738 904 497.999 904 511.999c0 39.814-38.939 80.588-106.751 112-75.688 34.998-177.012 54.339-285.249 54.339-108.239 0-209.475-19.341-285.251-54.339-67.9-31.412-106.749-72.274-106.749-112 0-12.6 3.849-25.375 11.375-37.886 7.961-13.212 3.761-30.451-9.539-38.414-13.212-7.961-30.451-3.763-38.412 9.541C70.561 466.587 64 489.075 64 511.999c0 63.439 49.437 121.274 139.212 162.839 82.949 38.412 192.588 59.5 308.788 59.5s225.837-21.175 308.786-59.5C910.561 633.273 960 575.438 960 511.999c0-25.375-7.963-50.049-23.626-73.41-8.662-12.864-26.074-16.278-38.849-7.613z" fill="#d81e06" p-id="2502"></path><path d="M897.525 656.638c-12.863 8.661-16.275 25.988-7.612 38.847C899.275 709.399 904 723.662 904 737.662c0 39.812-38.939 80.588-106.751 112-75.688 35-177.012 54.337-285.249 54.337-108.239 0-209.475-19.337-285.251-54.337-67.9-31.412-106.749-72.275-106.749-112 0-12.602 3.849-25.374 11.375-37.888 7.961-13.212 3.761-30.451-9.539-38.414-13.212-7.961-30.451-3.761-38.412 9.539C70.561 692.252 64 714.65 64 737.662c0 63.439 49.437 121.276 139.212 162.837C286.161 938.911 395.8 960.001 512 960.001s225.837-21.177 308.786-59.502C910.561 858.938 960 801.101 960 737.662c0-25.374-7.963-50.053-23.626-73.414-8.662-12.861-26.074-16.272-38.849-7.61zM203.212 449.176C286.161 487.587 395.8 508.674 512 508.674s225.837-21.175 308.786-59.498C910.561 407.699 960 349.86 960 286.338c0-63.526-49.439-121.277-139.214-162.837C737.837 85.174 628.2 63.999 512 63.999s-225.839 21.175-308.788 59.502C113.437 165.06 64 222.899 64 286.338c0 63.437 49.437 121.361 139.212 162.838z m23.537-274.84c75.775-34.998 177.012-54.337 285.251-54.337 108.237 0 209.475 19.339 285.249 54.337C865.149 205.75 904 246.611 904 286.338s-38.939 80.588-106.751 112.002C721.561 433.338 620.237 452.673 512 452.673c-108.239 0-209.475-19.335-285.251-54.333C158.849 366.925 120 326.064 120 286.338s38.937-80.588 106.749-112.002z" fill="#d81e06" p-id="2503"></path></svg>