<?xml version="1.0" standalone="no"?><!DOCTYPE svg PUBLIC "-//W3C//DTD SVG 1.1//EN" "http://www.w3.org/Graphics/SVG/1.1/DTD/svg11.dtd"><svg t="1499782251972" class="icon" style="" viewBox="0 0 1024 1024" version="1.1" xmlns="http://www.w3.org/2000/svg" p-id="5115" xmlns:xlink="http://www.w3.org/1999/xlink" width="16" height="16"><defs><style type="text/css"></style></defs><path d="M516.946662 119.67259c54.674227 0 106.074897 21.290909 144.735405 59.951417 38.660508 38.660508 59.951417 90.061179 59.951417 144.735405s-21.290909 106.074897-59.951417 144.735405-90.062202 59.951417-144.735405 59.951417-106.074897-21.290909-144.735405-59.951417-59.951417-90.061179-59.951417-144.735405S333.550749 218.283492 372.211257 179.624007C410.870742 140.963499 462.272435 119.67259 516.946662 119.67259M516.946662 65.437361c-142.998855 0-258.922051 115.923196-258.922051 258.922051s115.923196 258.922051 258.922051 258.922051S775.868713 467.357244 775.868713 324.359412 659.944494 65.437361 516.946662 65.437361L516.946662 65.437361z" p-id="5116" fill="#d81e06"></path><path d="M629.505227 515.557012c-5.016247-1.470491-10.067286-2.859118-15.161305-4.140297 0.186242 1.435699 0.293689 2.877537 0.293689 4.319375 0 9.794064-3.937682 19.295462-10.859325 26.217105-7.320733 7.320733-16.129352 10.145058-26.217105 10.859325-27.112498 1.921769-54.04694-2.772136-80.82891-6.557346-11.901051-1.494027-23.829731-2.595105-35.840276-2.653433-19.299555-0.095167-35.538401-15.322987-36.962843-34.360576-170.46951 38.71372-300.343439 184.250374-315.527257 362.504174-0.00307 0.007163-0.007163 0.013303-0.010233 0.020466 0 0.005117-0.00614 0.118704-0.016373 0.320295-0.964978 11.44568-1.469468 23.022343-1.469468 34.718733 0 6.1777 0.147356 12.32163 0.419556 18.431791 0 0 0.258896 5.064342 0.423649 7.807826l0 0 0.026606 0.783853c0.509606 14.9679 13.057387 26.688849 28.025287 26.178219 14.9679-0.509606 26.688849-13.057387 26.178219-28.025287l-0.830925-24.379247c-0.00307-0.26606-0.007163-0.531096-0.007163-0.798179 0-47.740304 9.337669-94.022397 27.754111-137.563052 17.799388-42.082444 43.291992-79.887468 75.770707-112.366184 32.477692-32.477692 70.282716-57.970296 112.366184-75.769684 43.540655-18.416442 89.823771-27.754111 137.563052-27.754111 32.729425 0 64.773236 4.39203 95.719038 13.08604-0.11154-1.539053-0.189312-3.086291-0.189312-4.649903C610.124831 543.904641 617.58064 527.498996 629.505227 515.557012z" p-id="5117" fill="#d81e06"></path><path d="M495.066329 546.561144c-24.785499 3.586688-49.703005 7.465019-74.772984 5.688559-10.087753-0.715291-18.896372-3.538593-26.217105-10.859325-6.921643-6.921643-10.859325-16.423041-10.859325-26.217105 0-1.441838 0.107447-2.883677 0.293689-4.319375-5.094018 1.281179-10.145058 2.668783-15.161305 4.140297 11.924587 11.941983 19.380396 28.347628 19.380396 46.232974 0 1.563612-0.076748 3.110851-0.189312 4.649903 30.945803-8.694009 62.989613-13.08604 95.719038-13.08604 4.546549 0 9.075703 0.11154 13.594623 0.281409C496.15001 550.942941 495.54933 548.772508 495.066329 546.561144z" p-id="5118" fill="#d81e06"></path><path d="M917.108504 871.524307c-0.010233-0.201591-0.01535-0.315178-0.016373-0.320295-0.00307-0.007163-0.007163-0.013303-0.010233-0.020466-7.374968-86.578868-41.845037-165.399027-94.851275-228.03867-12.069897 13.063527-29.267581 21.348214-48.113811 21.348214-1.905396 0-3.78828-0.102331-5.656837-0.268106 28.849048 30.656207 51.752688 65.738213 68.128657 104.45398 18.416442 43.540655 27.754111 89.823771 27.754111 137.563052 0 0.26606-0.005117 0.532119-0.007163 0.798179l-0.830925 24.379247c-0.509606 14.9679 11.210319 27.51568 26.178219 28.025287s27.51568-11.210319 28.025287-26.178219l0.026606-0.783853 0 0c0.163729-2.743484 0.423649-7.807826 0.423649-7.807826 0.272199-6.111185 0.419556-12.254092 0.419556-18.431791C918.577972 894.547673 918.073482 882.969986 917.108504 871.524307z" p-id="5119" fill="#d81e06"></path><path d="M827.121004 647.379317l-19.364023-21.366633-0.867764-2.057869c0 0-15.437597-17.645892-19.964704-19.003819-0.002047-0.001023-0.004093 0-0.00614-0.001023-9.92914-5.737678-22.819728-4.724605-31.773657 3.38919-11.097756 10.057053-11.94096 27.205619-1.882883 38.303374l33.67189 37.155225c10.057053 11.097756 27.206642 11.941983 38.303374 1.88493C836.334853 675.626661 837.178057 658.477073 827.121004 647.379317z" p-id="5120" fill="#d81e06"></path></svg>