<?xml version="1.0" standalone="no"?><!DOCTYPE svg PUBLIC "-//W3C//DTD SVG 1.1//EN" "http://www.w3.org/Graphics/SVG/1.1/DTD/svg11.dtd"><svg t="1499781744502" class="icon" style="" viewBox="0 0 1024 1024" version="1.1" xmlns="http://www.w3.org/2000/svg" p-id="7601" xmlns:xlink="http://www.w3.org/1999/xlink" width="16" height="16"><defs><style type="text/css"></style></defs><path d="M855.1424 683.008a168.96 168.96 0 0 0-141.0048 76.0832L444.7232 568.0128a224.8704 224.8704 0 0 0-10.24-140.8L727.8592 279.552c31.0272 35.5328 76.4928 58.0608 127.2832 58.0608a168.96 168.96 0 0 0 168.7552-168.7552A168.96 168.96 0 0 0 855.04 0a168.96 168.96 0 0 0-164.5568 206.2336L389.7344 357.888a224.9728 224.9728 0 0 0-163.9424-70.656A225.9968 225.9968 0 0 0 0 512.9216c0 124.5184 101.2736 225.792 225.792 225.792 75.6736 0 142.848-37.4784 183.9104-94.8224l277.0944 196.608a168.96 168.96 0 0 0 168.448 180.224A168.96 168.96 0 0 0 1024 851.6608c0-92.9792-75.776-168.7552-168.8576-168.7552z m0-600.8832a86.7328 86.7328 0 0 1 0 173.2608 86.7328 86.7328 0 0 1 0-173.2608z m-629.3504 574.464a143.7696 143.7696 0 0 1 0-287.3344 143.7696 143.7696 0 0 1 0 287.3344zM855.04 938.3936a86.7328 86.7328 0 0 1 0-173.3632 86.7328 86.7328 0 0 1 0 173.3632z" p-id="7602" fill="#bfbfbf"></path></svg>