<?xml version="1.0" standalone="no"?><!DOCTYPE svg PUBLIC "-//W3C//DTD SVG 1.1//EN" "http://www.w3.org/Graphics/SVG/1.1/DTD/svg11.dtd"><svg t="1500129845199" class="icon" style="" viewBox="0 0 1024 1024" version="1.1" xmlns="http://www.w3.org/2000/svg" p-id="3063" xmlns:xlink="http://www.w3.org/1999/xlink" width="16" height="16"><defs><style type="text/css"></style></defs><path d="M512 1024c-282.304 0-512-229.696-512-512s229.632-512 512-512 512 229.696 512 512-229.696 512-512 512zM512 64C265.024 64 64 264.96 64 512c0 246.976 200.96 448 448 448s448-201.024 448-448c0-247.04-201.024-448-448-448z" fill="#d81e06" p-id="3064"></path><path d="M574.848 687.616a32.064 32.064 0 0 1-22.08-8.832L352.832 488.896 222.656 623.552a32 32 0 1 1-46.016-44.48l152.192-157.44a32.064 32.064 0 0 1 45.056-0.96l198.656 188.736 227.52-261.952a32.064 32.064 0 0 1 48.384 41.92L599.04 676.608a32 32 0 0 1-22.656 10.944l-1.536 0.064z" fill="#d81e06" p-id="3065"></path></svg>