<?xml version="1.0" standalone="no"?><!DOCTYPE svg PUBLIC "-//W3C//DTD SVG 1.1//EN" "http://www.w3.org/Graphics/SVG/1.1/DTD/svg11.dtd"><svg t="1520340903897" class="icon" style="" viewBox="0 0 1024 1024" version="1.1" xmlns="http://www.w3.org/2000/svg" p-id="974" xmlns:xlink="http://www.w3.org/1999/xlink" width="32" height="32"><defs><style type="text/css"></style></defs><path d="M689.3568 820.9408 333.6192 820.9408c-13.9264 0-25.1904-11.264-25.1904-25.1904L308.4288 465.152l-211.968 0c-10.1888 0-19.4048-6.144-23.296-15.5648C69.2224 440.2176 71.424 429.312 78.6432 422.144l415.0272-415.0784c9.472-9.472 26.1632-9.472 35.6352 0l411.392 411.3408c7.2704 4.4544 12.0832 12.4416 12.0832 21.5552 0 14.1312-11.52 24.576-25.7024 25.1904-0.1536 0-0.3072 0-0.512 0l-211.968 0 0 330.5472C714.5984 809.6256 703.2832 820.9408 689.3568 820.9408zM358.8096 770.5088l305.3568 0L664.1664 439.9616c0-13.9264 11.264-25.1904 25.1904-25.1904l176.3328 0L511.488 60.5184 157.2864 414.7712l176.3328 0c13.9264 0 25.1904 11.264 25.1904 25.1904L358.8096 770.5088z" p-id="975" fill="#ffffff"></path><path d="M96.4096 923.1872l830.1056 0L926.5152 1024 96.4096 1024 96.4096 923.1872 96.4096 923.1872zM96.4096 923.1872" p-id="976" fill="#ffffff"></path></svg>