<?xml version="1.0" standalone="no"?><!DOCTYPE svg PUBLIC "-//W3C//DTD SVG 1.1//EN" "http://www.w3.org/Graphics/SVG/1.1/DTD/svg11.dtd"><svg t="1523728087348" class="icon" style="" viewBox="0 0 1024 1024" version="1.1" xmlns="http://www.w3.org/2000/svg" p-id="1941" xmlns:xlink="http://www.w3.org/1999/xlink" width="32" height="32"><defs><style type="text/css"></style></defs><path d="M621.7216 85.333333V68.266667a51.2 51.2 0 0 0-51.2-51.2H153.6a68.266667 68.266667 0 0 0-68.266667 68.266666v870.4a51.2 51.2 0 1 0 102.4 0V631.466667a68.266667 68.266667 0 0 1 68.266667-68.266667h163.345067a51.2 51.2 0 0 1 51.2 51.2v17.066667a51.2 51.2 0 0 0 51.2 51.2H870.4a68.266667 68.266667 0 0 0 68.266667-68.266667V204.8a68.266667 68.266667 0 0 0-68.266667-68.266667H672.9216a51.2 51.2 0 0 1-51.2-51.2z" fill="#1296db" p-id="1942"></path></svg>