<?xml version="1.0" standalone="no"?><!DOCTYPE svg PUBLIC "-//W3C//DTD SVG 1.1//EN" "http://www.w3.org/Graphics/SVG/1.1/DTD/svg11.dtd"><svg t="1523773674580" class="icon" style="" viewBox="0 0 1024 1024" version="1.1" xmlns="http://www.w3.org/2000/svg" p-id="2524" xmlns:xlink="http://www.w3.org/1999/xlink" width="32" height="32"><defs><style type="text/css"></style></defs><path d="M512 1024C229.248 1024 0 794.752 0 512S229.248 0 512 0s512 229.248 512 512-229.248 512-512 512z m0-938.666667C276.352 85.333333 85.333333 276.352 85.333333 512s191.018667 426.666667 426.666667 426.666667 426.666667-191.018667 426.666667-426.666667S747.648 85.333333 512 85.333333z m261.333333 469.333334H250.666667A37.333333 37.333333 0 0 1 213.333333 517.333333v-10.666666c0-20.608 16.725333-37.333333 37.333334-37.333334h522.666666c20.608 0 37.333333 16.725333 37.333334 37.333334v10.666666a37.333333 37.333333 0 0 1-37.333334 37.333334z" p-id="2525" fill="#1afa29"></path></svg>