<?xml version="1.0" standalone="no"?><!DOCTYPE svg PUBLIC "-//W3C//DTD SVG 1.1//EN" "http://www.w3.org/Graphics/SVG/1.1/DTD/svg11.dtd"><svg t="1523773652649" class="icon" style="" viewBox="0 0 1024 1024" version="1.1" xmlns="http://www.w3.org/2000/svg" p-id="1955" xmlns:xlink="http://www.w3.org/1999/xlink" width="32" height="32"><defs><style type="text/css"></style></defs><path d="M512 15.682606c-274.110468 0-496.317394 222.206925-496.317394 496.317394 0 274.110468 222.206925 496.317394 496.317394 496.317394s496.317394-222.206925 496.317394-496.317394C1008.317394 237.889532 786.110468 15.682606 512 15.682606zM512 962.267326c-248.675481 0-450.267326-201.591845-450.267326-450.267326 0-248.675481 201.591845-450.267326 450.267326-450.267326s450.267326 201.591845 450.267326 450.267326C962.267326 760.675481 760.675481 962.267326 512 962.267326z" p-id="1956" fill="#d81e06"></path><path d="M856.521021 512c0 19.781062-16.035657 35.816719-35.816719 35.816719L203.295698 547.816719c-19.781062 0-35.816719-16.035657-35.816719-35.816719l0 0c0-19.781062 16.035657-35.816719 35.816719-35.816719l617.413721 0C840.485365 476.183281 856.521021 492.218938 856.521021 512L856.521021 512z" p-id="1957" fill="#d81e06"></path><path d="M512 167.478979c19.781062 0 35.816719 16.035657 35.816719 35.816719l0 617.413721c0 19.781062-16.035657 35.816719-35.816719 35.816719l0 0c-19.781062 0-35.816719-16.035657-35.816719-35.816719L476.183281 203.295698C476.183281 183.514635 492.218938 167.478979 512 167.478979L512 167.478979z" p-id="1958" fill="#d81e06"></path></svg>