<?xml version="1.0" standalone="no"?><!DOCTYPE svg PUBLIC "-//W3C//DTD SVG 1.1//EN" "http://www.w3.org/Graphics/SVG/1.1/DTD/svg11.dtd"><svg t="1523122959142" class="icon" style="" viewBox="0 0 1024 1024" version="1.1" xmlns="http://www.w3.org/2000/svg" p-id="2259" xmlns:xlink="http://www.w3.org/1999/xlink" width="32" height="32"><defs><style type="text/css"></style></defs><path d="M511.706311 839.260485c-181.595918 0-328.825121-64.401776-329.340867-143.754055-17.128099-4.564969-33.79878-9.473769-49.665143-14.611789-0.688685 4.679579-0.969071 9.359158-0.969071 14.158465 0 108.579951 170.116469 196.608843 379.976104 196.608843 209.854519 0 379.976104-88.028892 379.976104-196.608843 0-6.107091-0.515746-12.219299-1.600451-18.155499-15.700587 5.363148-32.141024 10.505261-49.154513 15.242146l0.11461 2.913353C841.048201 774.685771 693.588755 839.260485 511.706311 839.260485L511.706311 839.260485 511.706311 839.260485zM511.706311 655.777591c-181.595918 0-328.825121-64.282049-329.340867-143.748938-17.128099-4.569062-33.79878-9.363252-49.665143-14.616906-0.688685 4.679579-0.969071 9.478885-0.969071 14.273075 0 108.46534 170.116469 196.494233 379.976104 196.494233 209.854519 0 379.976104-88.028892 379.976104-196.494233 0-6.164397-0.515746-12.214183-1.600451-18.269086-15.700587 5.423523-32.141024 10.504238-49.154513 15.298428l0.11461 2.970658C841.048201 591.266321 693.588755 655.777591 511.706311 655.777591L511.706311 655.777591 511.706311 655.777591zM182.365444 328.208067c0-79.585593 147.459446-144.092769 329.340867-144.092769s329.340867 64.507176 329.340867 144.092769c0 79.577407-147.459446 144.087653-329.340867 144.087653S182.365444 407.78445 182.365444 328.208067L182.365444 328.208067 182.365444 328.208067zM131.730207 328.208067c0 108.574834 170.121586 196.494233 379.976104 196.494233S891.682415 436.782901 891.682415 328.208067c0-108.579951-170.121586-196.498326-379.976104-196.498326S131.730207 219.628116 131.730207 328.208067L131.730207 328.208067 131.730207 328.208067zM131.730207 328.208067" p-id="2260" fill="#1296db"></path></svg>