<?xml version="1.0" standalone="no"?><!DOCTYPE svg PUBLIC "-//W3C//DTD SVG 1.1//EN" "http://www.w3.org/Graphics/SVG/1.1/DTD/svg11.dtd"><svg t="1523122859546" class="icon" style="" viewBox="0 0 1024 1024" version="1.1" xmlns="http://www.w3.org/2000/svg" p-id="1935" xmlns:xlink="http://www.w3.org/1999/xlink" width="32" height="32"><defs><style type="text/css"></style></defs><path d="M664.645963 222.608696 569.242236 407.055901C537.440994 457.937888 524.720497 489.73913 518.360248 502.459627l0 0C499.279503 464.298137 448.397516 368.89441 365.714286 222.608696l-95.403727 0L448.397516 521.540373l-139.925466 0 0 63.602484 165.36646 0 0 89.043478-165.36646 0 0 69.962733 165.36646 0 0 133.565217 82.68323 0 0-133.565217 159.006211 0 0-69.962733-159.006211 0 0-89.043478 159.006211 0 0-63.602484L575.602484 521.540373l178.086957-298.931677L664.645963 222.608696z" p-id="1936" fill="#d81e06"></path><path d="M206.708075 693.267081c6.360248 0 6.360248 0 12.720497 0 12.720497 0 19.080745-6.360248 25.440994-12.720497 6.360248-12.720497 0-31.801242-12.720497-38.161491-76.322981-38.161491-127.204969-89.043478-127.204969-139.925466 0-25.440994 6.360248-44.521739 25.440994-69.962733 6.360248-12.720497 6.360248-25.440994-6.360248-38.161491C117.664596 394.335404 98.583851 394.335404 92.223602 407.055901 60.42236 438.857143 47.701863 470.658385 47.701863 508.819876 47.701863 585.142857 104.944099 648.745342 206.708075 693.267081z" p-id="1937" fill="#d81e06"></path><path d="M893.614907 400.695652c-12.720497 12.720497-12.720497 25.440994 0 38.161491 19.080745 25.440994 31.801242 44.521739 31.801242 69.962733 0 50.881988-38.161491 82.68323-69.962733 108.124224-12.720497 12.720497-31.801242 19.080745-50.881988 31.801242-12.720497 6.360248-19.080745 19.080745-12.720497 38.161491 6.360248 12.720497 12.720497 12.720497 25.440994 12.720497 6.360248 0 6.360248 0 12.720497 0 19.080745-12.720497 44.521739-19.080745 57.242236-31.801242 63.602484-44.521739 95.403727-95.403727 95.403727-152.645963 0-38.161491-12.720497-69.962733-44.521739-101.763975C925.416149 394.335404 906.335404 394.335404 893.614907 400.695652z" p-id="1938" fill="#d81e06"></path><path d="M143.10559 400.695652c19.080745 12.720497 38.161491 25.440994 57.242236 31.801242 12.720497 6.360248 31.801242 0 38.161491-12.720497 6.360248-12.720497 0-31.801242-12.720497-38.161491C206.708075 375.254658 187.627329 368.89441 174.906832 356.173913 143.10559 330.732919 104.944099 298.931677 104.944099 248.049689c0-108.124224 190.807453-197.167702 407.055901-197.167702s407.055901 89.043478 407.055901 197.167702c0 50.881988-38.161491 82.68323-69.962733 108.124224-12.720497 12.720497-31.801242 19.080745-50.881988 31.801242-12.720497 6.360248-19.080745 19.080745-12.720497 38.161491 6.360248 12.720497 12.720497 12.720497 25.440994 12.720497 6.360248 0 6.360248 0 12.720497 0 19.080745-12.720497 44.521739-19.080745 57.242236-31.801242 63.602484-44.521739 95.403727-95.403727 95.403727-152.645963C976.298137 108.124224 772.770186 0 512 0S47.701863 108.124224 47.701863 248.049689C47.701863 305.291925 79.503106 356.173913 143.10559 400.695652z" p-id="1939" fill="#d81e06"></path><path d="M912.695652 680.546584c-12.720497 6.360248-12.720497 25.440994-6.360248 38.161491 12.720497 19.080745 19.080745 38.161491 19.080745 57.242236 0 50.881988-44.521739 101.763975-127.204969 139.925466-76.322981 38.161491-178.086957 57.242236-286.21118 57.242236-108.124224 0-209.888199-19.080745-286.21118-57.242236-76.322981-38.161491-127.204969-89.043478-127.204969-139.925466 0-19.080745 6.360248-31.801242 12.720497-50.881988 6.360248-12.720497 6.360248-31.801242-6.360248-38.161491-12.720497-6.360248-31.801242-6.360248-38.161491 6.360248-12.720497 25.440994-25.440994 50.881988-25.440994 82.68323 0 76.322981 57.242236 139.925466 152.645963 184.447205 82.68323 38.161491 190.807453 63.602484 305.291925 63.602484 114.484472 0 222.608696-19.080745 305.291925-63.602484 101.763975-44.521739 152.645963-114.484472 152.645963-184.447205 0-31.801242-6.360248-57.242236-25.440994-82.68323C938.136646 674.186335 925.416149 667.826087 912.695652 680.546584z" p-id="1940" fill="#d81e06"></path></svg>