<?xml version="1.0" standalone="no"?><!DOCTYPE svg PUBLIC "-//W3C//DTD SVG 1.1//EN" "http://www.w3.org/Graphics/SVG/1.1/DTD/svg11.dtd"><svg t="1523122996643" class="icon" style="" viewBox="0 0 1024 1024" version="1.1" xmlns="http://www.w3.org/2000/svg" p-id="3290" xmlns:xlink="http://www.w3.org/1999/xlink" width="32" height="32"><defs><style type="text/css"></style></defs><path d="M731.99104 136.86272v49.76128a97.1776 97.1776 0 0 1 71.82848 93.61408v531.56864c-0.11776 53.64224-43.63776 97.06496-97.28512 97.06496H317.40928c-53.64224 0-97.16224-43.42272-97.28-97.06496V280.23808c0-44.73344 30.54592-82.40128 71.82336-93.61408v-49.76128C222.3616 149.16608 171.60192 209.57696 171.46368 280.23808v531.56864c0 80.3072 65.4848 145.62816 145.9456 145.62816h389.17632c80.4864 0 145.77664-65.152 145.95584-145.62816V280.23808c-0.18944-70.66112-50.95936-131.05664-120.5504-143.37536zM365.92128 244.83328c28.80512 0 52.17792-22.26688 52.17792-49.7152v-78.848c0-27.44832-23.36768-49.71008-52.17792-49.71008-28.86656 0-52.23424 22.21056-52.23424 49.71008v78.84288c0.00512 27.45344 23.41888 49.72032 52.23424 49.72032z m294.30272 0c28.81536 0 52.18304-22.26688 52.18304-49.7152v-78.848c0-27.44832-23.36768-49.71008-52.18304-49.71008-28.86656 0-52.224 22.21056-52.224 49.71008v78.84288c0 27.45344 23.36256 49.72032 52.224 49.72032zM440.15104 183.1168h143.69792V134.5536H440.15104v48.5632z m299.22816 237.89568a29.1328 29.1328 0 0 1-29.12256 29.12768H313.74336a29.12768 29.12768 0 0 1-0.03072-58.25024h396.49792a29.1328 29.1328 0 0 1 29.16864 29.12256z m0 171.0848a29.12256 29.12256 0 0 1-29.12256 29.12768H313.74336a29.12256 29.12256 0 0 1-29.13792-29.12256 29.12256 29.12256 0 0 1 29.1072-29.14304h396.49792a29.14304 29.14304 0 0 1 29.16864 29.13792z m0 171.14624a29.12256 29.12256 0 0 1-29.12256 29.12256H313.74336a29.11744 29.11744 0 0 1-29.13792-29.11232 29.12256 29.12256 0 0 1 29.1072-29.14304h396.49792a29.14816 29.14816 0 0 1 29.16864 29.1328z" fill="#f4ea2a" p-id="3291"></path></svg>