<?xml version="1.0" standalone="no"?><!DOCTYPE svg PUBLIC "-//W3C//DTD SVG 1.1//EN" "http://www.w3.org/Graphics/SVG/1.1/DTD/svg11.dtd"><svg t="1523123036616" class="icon" style="" viewBox="0 0 1024 1024" version="1.1" xmlns="http://www.w3.org/2000/svg" p-id="4303" xmlns:xlink="http://www.w3.org/1999/xlink" width="32" height="32"><defs><style type="text/css"></style></defs><path d="M862.903427 437.034268c-19.140187 0-31.900312 12.760125-31.900312 31.900312l0 408.323988c0 44.660436-31.900312 82.94081-76.560748 82.94081L161.096573 960.199377C116.436137 960.199377 65.395639 921.919003 65.395639 877.258567L65.395639 283.912773C65.395639 239.252336 116.436137 194.5919 161.096573 194.5919l338.143302 0c19.140187 0 31.900312-12.760125 31.900312-31.900312S518.380062 130.791277 499.239875 130.791277L161.096573 130.791277C71.775701 130.791277 1.595016 194.5919 1.595016 283.912773l0 593.345794C1.595016 966.579439 71.775701 1024 161.096573 1024l593.345794 0c89.320872 0 140.361371-57.420561 140.361371-146.741433L894.803738 475.314642C894.803738 456.174455 882.043614 437.034268 862.903427 437.034268zM990.504673 79.750779l-51.040498-51.040498c-38.280374-38.280374-102.080997-38.280374-140.361371 0l-89.320872 108.461059L224.897196 609.29595l0 12.760125 0 0-63.800623 210.542056 44.660436 38.280374 197.781931-70.180685 0 0 12.760125 0 465.744548-491.264798 108.461059-89.320872C1028.785047 181.831776 1028.785047 118.031153 990.504673 79.750779zM250.417445 781.557632l31.900312-89.320872 57.420561 57.420561L250.417445 781.557632zM397.158879 717.757009 307.838006 628.436137 748.062305 194.5919 831.003115 277.53271 397.158879 717.757009zM945.844237 169.071651l-63.800623 63.800623-95.700935-95.700935 63.800623-63.800623C856.523364 73.370717 869.283489 66.990654 875.663551 66.990654c6.380062 0 19.140187 6.380062 25.520249 6.380062l51.040498 51.040498C958.604361 137.17134 958.604361 156.311526 945.844237 169.071651z" p-id="4304" fill="#d4237a"></path></svg>