<?xml version="1.0" standalone="no"?><!DOCTYPE svg PUBLIC "-//W3C//DTD SVG 1.1//EN" "http://www.w3.org/Graphics/SVG/1.1/DTD/svg11.dtd"><svg t="1500058141348" class="icon" style="" viewBox="0 0 1024 1024" version="1.1" xmlns="http://www.w3.org/2000/svg" p-id="3259" xmlns:xlink="http://www.w3.org/1999/xlink" width="16" height="16"><defs><style type="text/css"></style></defs><path d="M877.696 0 146.304 0C65.792 0 0 65.792 0 146.304l0 731.392C0 958.208 65.792 1024 146.304 1024l731.392 0C958.208 1024 1024 958.208 1024 877.696L1024 146.304C1024 65.792 958.208 0 877.696 0L877.696 0zM877.696 731.456l-146.24 0L365.696 731.456l0 146.24L292.544 877.696l0-146.24L292.544 365.696 146.304 365.696 146.304 292.608l146.304 0 365.696 0L658.304 146.304l73.216 0 0 146.304 0 365.632 146.24 0L877.76 731.456z" p-id="3260" fill="#d4237a"></path></svg>