<?xml version="1.0" standalone="no"?><!DOCTYPE svg PUBLIC "-//W3C//DTD SVG 1.1//EN" "http://www.w3.org/Graphics/SVG/1.1/DTD/svg11.dtd"><svg t="1500058251863" class="icon" style="" viewBox="0 0 1024 1024" version="1.1" xmlns="http://www.w3.org/2000/svg" p-id="5168" xmlns:xlink="http://www.w3.org/1999/xlink" width="16" height="16"><defs><style type="text/css"></style></defs><path d="M513.68078 126.001739l-62.804395 1.595334C235.12353 143.385665 64.344982 322.821383 64.344982 542.319539c0 229.901087 186.334849 416.257425 416.592047 416.257425 219.845057 0 399.311475-170.918741 415.219793-386.365628l1.37123-62.590524L513.68078 509.620813 513.68078 126.001739zM834.150606 573.424978c-15.616676 191.397145-167.803797 323.647191-353.49908 323.647191-196.11254 0-355.135346-158.853961-355.135346-354.685092 0-185.43434 132.60411-337.497641 324.274478-353.127619l0 384.166543L834.150606 573.426001zM545.624307 64.370053 545.624307 477.723336l413.655158 0C959.280488 254.426667 769.238201 64.370053 545.624307 64.370053zM609.514429 130.690528c31.943526 4.561899 49.356105 12.155854 74.275657 22.679535 42.35362 17.862833 78.902024 43.484374 111.579261 76.116585 32.6844 32.633235 57.603953 67.812455 75.517951 110.11184 10.54517 24.880667 17.384949 42.429345 21.982664 74.326822L609.514429 413.925311 609.514429 130.690528z" p-id="5169" fill="#5cadad"></path></svg>