<?xml version="1.0" standalone="no"?><!DOCTYPE svg PUBLIC "-//W3C//DTD SVG 1.1//EN" "http://www.w3.org/Graphics/SVG/1.1/DTD/svg11.dtd"><svg t="1500058419182" class="icon" style="" viewBox="0 0 1024 1024" version="1.1" xmlns="http://www.w3.org/2000/svg" p-id="8671" xmlns:xlink="http://www.w3.org/1999/xlink" width="16" height="16"><defs><style type="text/css"></style></defs><path d="M324.266667 460.8c-17.066667-17.066667-39.822222-17.066667-51.2 0-17.066667 17.066667-17.066667 39.822222 0 51.2l153.6 159.288889c5.688889 5.688889 17.066667 11.377778 28.444444 11.377778s17.066667-5.688889 28.444445-11.377778l295.822222-290.133333c17.066667-17.066667 17.066667-39.822222 0-51.2-17.066667-17.066667-39.822222-17.066667-51.2 0L455.111111 591.644444 324.266667 460.8z" p-id="8672" fill="#d4237a"></path><path d="M927.288889 142.222222L523.377778 0h-22.755556L96.711111 142.222222c-17.066667 5.688889-28.444444 17.066667-28.444444 34.133334v432.355555c11.377778 250.311111 409.6 409.6 426.666666 415.288889h22.755556c17.066667-5.688889 415.288889-159.288889 426.666667-415.288889V176.355556c11.377778-17.066667 0-28.444444-17.066667-34.133334z m-45.511111 460.8c-5.688889 182.044444-301.511111 312.888889-369.777778 341.333334-113.777778-45.511111-358.4-182.044444-369.777778-341.333334v-398.222222L512 73.955556l369.777778 125.155555v403.911111z" p-id="8673" fill="#d4237a"></path></svg>