<?xml version="1.0" standalone="no"?><!DOCTYPE svg PUBLIC "-//W3C//DTD SVG 1.1//EN" "http://www.w3.org/Graphics/SVG/1.1/DTD/svg11.dtd"><svg t="1500058160998" class="icon" style="" viewBox="0 0 1088 1024" version="1.1" xmlns="http://www.w3.org/2000/svg" p-id="3479" xmlns:xlink="http://www.w3.org/1999/xlink" width="17" height="16"><defs><style type="text/css"></style></defs><path d="M33.984 992.64v-132.16h269.632c-79.104-58.816-138.368-123.136-177.92-193.152a453.632 453.632 0 0 1-59.264-226.816c0-127.488 44.48-231.168 133.504-311.104C288.896 49.408 404.288 9.472 545.92 9.472c141.76 0 257.088 40 346.112 119.936 88.96 79.936 133.504 183.616 133.504 311.04 0 80.832-19.776 156.224-59.328 226.24-39.488 69.952-98.816 134.592-177.92 193.792h269.632v132.16H619.264v-132.16c64.768-48.384 113.408-106.432 145.792-174.08 32.384-67.584 48.64-144.832 48.64-231.68 0-97.216-23.872-173.76-71.68-229.76-47.68-55.936-113.088-83.84-196.032-83.84-82.944 0-148.288 28.032-196.032 84.224-47.744 56.128-71.616 132.864-71.616 230.08 0 86.784 16.192 163.968 48.64 231.36 32.384 67.392 80.96 125.312 145.792 173.696v132.16H33.92z" p-id="3480" fill="#1296db"></path></svg>