<?xml version="1.0" standalone="no"?><!DOCTYPE svg PUBLIC "-//W3C//DTD SVG 1.1//EN" "http://www.w3.org/Graphics/SVG/1.1/DTD/svg11.dtd"><svg t="1500058325961" class="icon" style="" viewBox="0 0 1024 1024" version="1.1" xmlns="http://www.w3.org/2000/svg" p-id="6786" xmlns:xlink="http://www.w3.org/1999/xlink" width="16" height="16"><defs><style type="text/css"></style></defs><path d="M643.4816 81.1008c-19.6608-6.144-39.3216 8.6016-39.3216 29.0816 0 13.5168 9.0112 25.8048 22.1184 29.9008 160.9728 49.152 277.7088 200.2944 274.8416 378.4704-3.2768 209.3056-174.08 380.1088-383.3856 382.976C300.2368 904.3968 122.88 729.088 122.88 512c0-204.3904 157.696-372.3264 358.4-387.8912v380.928c0 20.8896 16.7936 37.6832 37.6832 37.6832h287.5392c15.1552 0 29.0816-10.6496 31.5392-25.8048 3.2768-18.8416-11.8784-35.6352-30.3104-35.6352h-265.0112V62.6688c-10.24-0.8192-20.48-1.2288-30.72-1.2288C260.9152 61.44 58.1632 266.6496 61.44 518.5536c3.2768 242.4832 201.5232 440.7296 444.0064 444.0064 251.904 3.6864 457.1136-199.4752 457.1136-450.56 0-202.752-134.3488-374.784-319.0784-430.8992z" p-id="6787" fill="#d4237a"></path></svg>