<?xml version="1.0" standalone="no"?><!DOCTYPE svg PUBLIC "-//W3C//DTD SVG 1.1//EN" "http://www.w3.org/Graphics/SVG/1.1/DTD/svg11.dtd"><svg t="1500058191954" class="icon" style="" viewBox="0 0 1024 1024" version="1.1" xmlns="http://www.w3.org/2000/svg" p-id="4290" xmlns:xlink="http://www.w3.org/1999/xlink" width="16" height="16"><defs><style type="text/css"></style></defs><path d="M515.916361 417.216888a84.322076 84.322076 0 0 0-38.522661 9.284592l-95.679012-93.033292c-11.135777-10.82042-28.921689-10.586974-39.714464 0.548802-10.82042 11.121442-10.573664 28.908378 0.548803 39.714464l96.054777 93.398819a84.37327 84.37327 0 0 0-7.573679 34.98821c0 46.80487 38.082391 84.887261 84.88726 84.88726s84.887261-38.082391 84.887261-84.88726c-0.001024-46.81818-38.083415-84.901595-84.888285-84.901595z m0 113.618506c-15.839506 0-28.715888-12.877406-28.715887-28.716911 0-7.505079 2.915002-14.327227 7.64228-19.45075l0.010238-0.009215 0.046075-0.053242c5.246388-5.653895 12.713584-9.21804 21.017294-9.218039 15.839506 0 28.716912 12.890716 28.716912 28.730222 0 15.84053-12.877406 28.717936-28.716912 28.717935z" fill="#d4237a" p-id="4291"></path><path d="M509.715712 62.762123c-246.953973 0-447.150175 200.195178-447.150175 447.150175s200.196202 447.150175 447.150175 447.150175c246.953973 0 447.150175-200.196202 447.150175-447.150175S756.669685 62.762123 509.715712 62.762123z m0 838.127953c-145.59035 0-272.833699-80.000256-340.122418-198.339898l49.35332-28.489609c13.426208-7.762075 18.033692-24.931608 10.284928-38.371126-7.775385-13.439519-24.931608-18.074648-38.371126-10.284928l-45.514775 26.273921c-17.168509-43.974851-26.609756-91.787224-26.609755-141.767162 0-57.205497 12.351129-111.579951 34.524389-160.599485l47.062889 27.175964a27.970499 27.970499 0 0 0 14.014942 3.75766c9.709505 0 19.144608-5.032396 24.35516-14.042588 7.74774-13.425184 3.154591-30.609052-10.284928-38.371126l-48.352984-27.921353c65.660742-102.713104 177.976867-172.835938 306.828739-180.292895v55.798678c0 15.509815 12.57536 28.085174 28.085174 28.085175s28.085174-12.57536 28.085175-28.085175v-55.046122c124.022206 10.524517 231.73187 79.169885 295.6817 178.542051l-50.083351 28.920665c-13.439519 7.762075-18.033692 24.944918-10.284928 38.371126 5.211576 9.010191 14.64668 14.042587 24.35516 14.042587 4.759019 0 9.599949-1.207161 14.014942-3.757659l48.93148-28.255139c22.482474 49.301102 35.024045 104.051322 35.024045 161.67866 0 50.271746-9.544659 98.3534-26.90361 142.539171l-46.862208-27.04593c-13.467164-7.78972-30.636697-3.154591-38.371126 10.284928-7.74774 13.439519-3.140256 30.609052 10.284928 38.371126l50.597341 29.202233c-67.392132 117.948518-194.422513 197.62625-339.723103 197.62625z" fill="#d4237a" p-id="4292"></path></svg>