<?xml version="1.0" standalone="no"?><!DOCTYPE svg PUBLIC "-//W3C//DTD SVG 1.1//EN" "http://www.w3.org/Graphics/SVG/1.1/DTD/svg11.dtd"><svg t="1500058070458" class="icon" style="" viewBox="0 0 1024 1024" version="1.1" xmlns="http://www.w3.org/2000/svg" p-id="2436" xmlns:xlink="http://www.w3.org/1999/xlink" width="16" height="16"><defs><style type="text/css"></style></defs><path d="M456.621227 65.595974c82.788541-13.633508 169.639608-3.796466 246.51344 30.227442 97.66025 42.500976 178.549535 122.067126 222.370576 219.194234 46.956452 102.07684 51.368948 222.685755 12.799514 328.153832-34.157961 94.262874-101.938694 175.724187-188.389647 226.473011-84.334757 50.487881-186.143491 69.815065-283.273669 55.784514-92.143607-12.974499-179.300642-57.150628-244.922199-122.992195-61.915142-61.648059-104.767112-142.320403-120.475885-228.326219-18.534122-100.971669-0.926092-208.563106 51.325969-297.218262C216.02659 166.080549 330.544787 86.161359 456.621227 65.595974z m21.845541 52.824089C377.850186 131.656529 283.719318 187.265034 223.836463 269.25949c-47.131437 63.498196-73.741491 142.051273-74.271564 221.176378-2.074242 84.33578 26.567076 168.712493 78.112032 235.347123 49.863664 65.047482 120.959909 113.592105 200.039989 135.303592 84.644819 23.211654 177.538509 16.768919 257.411651-19.85828 84.687798-37.948287 154.324808-108.162442 191.747115-193.113229 36.273135-80.670298 41.745776-174.313048 16.946974-259.044848-25.642007-89.583295-85.787852-168.755472-165.312046-217.341026-73.828472-46.074362-163.897837-65.140603-250.043846-53.309137z" fill="#d81e06" p-id="2437"></path><path d="M830.229297 354.120226c17.033955-3.357468 34.07098 12.975523 31.510667 30.18344-2.206248 14.82873-15.488763 23.784706-24.977881 33.979906-54.498218 55.645344-108.783589 111.51684-163.41279 167.076226-9.444093 9.621125-17.830087 21.801539-31.153534 26.305109-10.020214 3.705392-20.652366-1.192152-28.332278-7.550976-53.578266-40.687678-107.196441-81.372286-160.723542-122.06508-66.375733 49.429783-132.700301 98.987478-199.163015 148.237159-13.767562 10.984169-38.127366 5.382591-42.582841-12.622482-5.29561-11.82635 0.661056-25.64303 11.076266-32.391734 69.108984-51.67594 138.479935-102.997815 207.54594-154.722874 10.501168-9.882068 27.53717-15.884782 39.539528-4.852518 54.499242 40.643676 108.425432 82.036411 162.575726 123.168204 58.734706-60.282968 117.827569-120.212896 176.256306-180.756807 6.264681-5.912663 12.751419-12.885472 21.841448-13.987573z" fill="#d81e06" p-id="2438"></path></svg>