<?xml version="1.0" standalone="no"?><!DOCTYPE svg PUBLIC "-//W3C//DTD SVG 1.1//EN" "http://www.w3.org/Graphics/SVG/1.1/DTD/svg11.dtd"><svg t="1525086203591" class="icon" style="" viewBox="0 0 1024 1024" version="1.1" xmlns="http://www.w3.org/2000/svg" p-id="6032" xmlns:xlink="http://www.w3.org/1999/xlink" width="22" height="22"><defs><style type="text/css"></style></defs><path d="M512 0C229.238 0 0 229.238 0 512s229.238 512 512 512 512-229.238 512-512S794.762 0 512 0z m0 949.6c-241.621 0-437.498-195.876-437.498-437.498S270.38 74.502 512 74.502 949.498 270.38 949.498 512 753.62 949.6 512 949.6z" p-id="6033" fill="#d4237a"></path><path d="M512 376.197c-20.263 0-36.74 16.476-36.74 36.74v330.655c0 20.366 16.477 36.74 36.74 36.74s36.74-16.374 36.74-36.74V412.936c0-20.263-16.477-36.74-36.74-36.74zM474.749 280.92a36.4 36.4 0 1 0 74.502 0 36.4 36.4 0 1 0-74.502 0z" p-id="6034" fill="#d4237a"></path></svg>