<?xml version="1.0" standalone="no"?><!DOCTYPE svg PUBLIC "-//W3C//DTD SVG 1.1//EN" "http://www.w3.org/Graphics/SVG/1.1/DTD/svg11.dtd"><svg t="1525086131425" class="icon" style="" viewBox="0 0 1024 1024" version="1.1" xmlns="http://www.w3.org/2000/svg" p-id="3367" xmlns:xlink="http://www.w3.org/1999/xlink" width="22" height="22"><defs><style type="text/css"></style></defs><path d="M169.345 764.428c14.104-32.365 34.151-60.566 59.541-85.004 22.118-21.281 47.202-38.379 74.319-52.639 2.676-1.396 3.916-0.285 5.6 1.207 29.595 26.234 63.056 45.928 100.355 59.055a300.659 300.659 0 0 0 78.093 16.33c46.348 3.424 91.239-2.928 134.603-19.723 33.834-13.1 64.332-31.721 91.386-55.91 2.254-2.004 3.843-2.184 6.516-0.799 26.188 13.643 50.503 29.924 72.146 50.084 39.902 37.186 65.479 82.342 78.693 135.381 2.526 10.135 4.353 26.109 5.549 39.674 1.204 13.576-9.467 25.256-23.091 25.256H170.952c-13.71 0-24.42-11.822-23.075-25.473 2.201-22.262 7.7-55.834 21.468-87.439z m342.208-121.533c-75.407-2.775-134.682-33.494-175.84-96.562-17.822-27.288-27.27-57.677-29.789-90.25-7.614-98.564 58.637-186.926 154.374-209.925 70-16.823 133.516-1.609 188.23 45.567 36.726 31.666 59.405 72.177 65.718 120.336 9.911 75.647-15.823 137.932-74.841 186.085-28.433 23.203-61.492 36.689-97.755 42.021-10.188 1.503-20.532 1.894-30.097 2.728zM266.04 332.661h6.948v168.704c0 9.746-8.906 17.156-18.458 15.199a89.813 89.813 0 0 1-9.544-2.511c-25.867-8.273-45.263-24.366-57.362-48.834-17.886-36.165-9.084-81.083 21.195-107.759 4.796-4.229 10.342-7.597 15.419-11.533 1.52-1.183 3.126-2.752 3.793-4.488 26.032-68.556 71.211-120.671 134.932-156.65 33.307-18.801 69.123-30.5 107.104-35.364 68.982-8.834 133.956 3.377 194.104 38.439 60.799 35.433 103.881 86.287 129.031 152.132 1.152 3.008 2.753 5.034 5.543 6.706 56.246 33.593 60.083 113.712 7.377 152.551-8.856 6.521-25.029 11.607-37.916 14.847-9.764 2.454-19.221-4.96-19.221-15.027V332.7h6.967c-36.708-83.083-128.172-155.56-245.538-155.239-120.264 0.331-209.528 75.713-244.374 155.2z" p-id="3368" fill="#1296db"></path></svg>