<?xml version="1.0" standalone="no"?><!DOCTYPE svg PUBLIC "-//W3C//DTD SVG 1.1//EN" "http://www.w3.org/Graphics/SVG/1.1/DTD/svg11.dtd"><svg t="1525086027027" class="icon" style="" viewBox="0 0 1024 1024" version="1.1" xmlns="http://www.w3.org/2000/svg" p-id="1411" xmlns:xlink="http://www.w3.org/1999/xlink" width="22" height="22"><defs><style type="text/css"></style></defs><path d="M870.4 0H153.6C97.28 0 51.2 46.08 51.2 102.4v788.48c0 15.36 5.12 30.72 10.24 40.96 25.6 51.2 81.92 71.68 133.12 51.2l271.36-122.88c25.6-10.24 56.32-10.24 87.04 0l271.36 122.88c15.36 5.12 25.6 10.24 40.96 10.24 56.32 0 102.4-46.08 102.4-102.4V102.4c5.12-56.32-40.96-102.4-97.28-102.4z m51.2 890.88c0 35.84-40.96 61.44-71.68 46.08l-271.36-122.88c-20.48-10.24-40.96-15.36-61.44-15.36-20.48 0-46.08 5.12-61.44 15.36l-271.36 122.88c-25.6 10.24-56.32 0-66.56-25.6-15.36-5.12-15.36-10.24-15.36-20.48V102.4c0-30.72 20.48-51.2 51.2-51.2h716.8c30.72 0 51.2 20.48 51.2 51.2v788.48z" p-id="1412" fill="#d81e06"></path><path d="M696.32 286.72L460.8 527.36 327.68 389.12c-10.24-10.24-25.6-10.24-35.84 0s-10.24 25.6 0 35.84L460.8 599.04l276.48-276.48c10.24-10.24 10.24-25.6 0-35.84s-30.72-5.12-40.96 0z" p-id="1413" fill="#d81e06"></path></svg>