<?xml version="1.0" standalone="no"?><!DOCTYPE svg PUBLIC "-//W3C//DTD SVG 1.1//EN" "http://www.w3.org/Graphics/SVG/1.1/DTD/svg11.dtd"><svg t="1525086233461" class="icon" style="" viewBox="0 0 1024 1024" version="1.1" xmlns="http://www.w3.org/2000/svg" p-id="6631" xmlns:xlink="http://www.w3.org/1999/xlink" width="22" height="22"><defs><style type="text/css"></style></defs><path d="M873.437639 151.129451C740.595931 11.358846 499.901977-43.61797 313.162542 42.311703c-62.928009 26.97726-117.848031 62.871215-163.794564 108.817748-90.870771 90.870771-148.800887 222.746977-148.800888 361.55208 0 104.842152 28.965058 200.710815 87.917471 286.583694l-41.970937 148.800887c-4.997892 19.026068-3.010094 36.007543 6.98569 48.956628 9.030283 13.005879 23.001664 18.969273 39.98314 18.969273a45.832945 45.832945 0 0 0 16.981475-3.010094l164.760067-46.912035a511.716029 511.716029 0 0 0 229.675873 57.930116h6.985691a502.004215 502.004215 0 0 0 198.779811-40.948641c126.82152-52.932224 218.714587-144.825291 271.646811-271.646811 85.872879-186.739434 30.952856-427.433389-108.874543-560.275097zM552.15267 835.783916c-47.877537 56.510261-133.409651-34.246922-80.363838-78.7736 51.285191-54.749639 135.056683 29.135441 80.363838 78.7736z m140.395341-303.849141c-30.839268 27.601997-47.025624 35.950749-83.771492 53.954521-39.642374 19.139656-39.869551 27.37482-39.869551 40.551081 0 51.512368-113.588464 51.512368-113.588463 0 0-37.143428 35.950749-70.538436 57.98691-83.714698 10.279756-7.156073 24.932668-15.56162 44.072324-23.967165 41.119024-20.332335 54.35208-26.352524 72.015086-53.897726a94.278425 94.278425 0 0 0 13.176262-50.31969c0-57.532557-58.78203-105.466889-130.740322-105.466888-72.015086 0-130.797116 47.934332-130.797116 105.466888 4.42995 52.705047-101.377704 52.705047-96.947753 0 0-51.512368 22.036162-94.675984 66.108486-130.626733 45.548974-37.143428 98.424404-55.090405 161.636383-55.090405 63.155186 0 116.08741 17.946977 160.159734 55.090405 45.548974 35.950749 67.585136 79.114365 67.585136 130.626733 0 49.127011-16.186356 88.655796-47.025624 117.393677z" p-id="6632" fill="#1296db"></path></svg>