<?xml version="1.0" standalone="no"?><!DOCTYPE svg PUBLIC "-//W3C//DTD SVG 1.1//EN" "http://www.w3.org/Graphics/SVG/1.1/DTD/svg11.dtd"><svg t="1525086174456" class="icon" style="" viewBox="0 0 1024 1024" version="1.1" xmlns="http://www.w3.org/2000/svg" p-id="5090" xmlns:xlink="http://www.w3.org/1999/xlink" width="22" height="22"><defs><style type="text/css"></style></defs><path d="M832.768 341.205333c0-18.901333 15.872-34.261333 35.413333-34.261333 19.882667 0 36.096 15.658667 36.096 34.858667v550.144c0 60.970667-51.498667 110.72-114.602666 110.72H157.226667C94.165333 1002.666667 42.666667 952.917333 42.666667 891.946667V203.008c0-60.970667 51.498667-110.72 114.56-110.72h493.738666c20.650667 0 37.333333 16.128 37.333334 36.096 0 21.632-18.090667 39.296-40.661334 39.296H149.12c-19.370667 0-35.114667 15.36-35.114667 33.92v691.882667c0 18.773333 15.914667 33.962667 35.114667 33.962666h648.533333c19.370667 0 35.114667-15.36 35.114667-33.962666V341.205333z m-388.693333 101.034667H215.552a28.885333 28.885333 0 0 1-29.226667-28.288V400.64c0-15.488 13.184-28.245333 29.226667-28.245333h228.522667c16.042667 0 29.226667 12.757333 29.226666 28.245333v13.354667c0.170667 15.530667-13.013333 28.288-29.226666 28.288z m214.357333 210.048H215.552a28.885333 28.885333 0 0 1-29.226667-28.245333v-13.397334c0-15.488 13.184-28.245333 29.226667-28.245333h442.88c16.042667 0 29.226667 12.757333 29.226667 28.245333v13.397334c0 15.488-13.184 28.245333-29.226667 28.245333z m314.325333-573.184l-366.293333 355.882667a30.250667 30.250667 0 0 1-41.472 0.170666l-9.813333-9.514666a27.818667 27.818667 0 0 1-0.213334-40.106667L921.429333 29.696a30.250667 30.250667 0 0 1 41.472-0.170667l9.813334 9.514667c11.477333 11.093333 11.477333 29.013333 0 40.106667z" fill="#1afa29" p-id="5091"></path></svg>