<?xml version="1.0" standalone="no"?><!DOCTYPE svg PUBLIC "-//W3C//DTD SVG 1.1//EN" "http://www.w3.org/Graphics/SVG/1.1/DTD/svg11.dtd"><svg t="1525086060442" class="icon" style="" viewBox="0 0 1024 1024" version="1.1" xmlns="http://www.w3.org/2000/svg" p-id="2325" xmlns:xlink="http://www.w3.org/1999/xlink" width="22" height="22"><defs><style type="text/css"></style></defs><path d="M960 512c0 247.4-200.6 448-448 448S64 759.4 64 512 264.6 64 512 64s448 200.6 448 448zM479.7 771.4h64.7V666.3h128v-56.4h-128v-64.4h128v-55.7H571l0.5-0.9 129.9-236.3h-68.8l-78.8 145.1c-20.9 39.2-33.9 65.6-38.6 78.5l-0.1 0.4H513l-0.2-0.3c-13.8-31.4-53.3-106.7-117.4-223.7h-71.1l127.3 237.1H347v55.7h132.7v64.4H347v56.4h132.7v105.2z m0 0" fill="#f4ea2a" p-id="2326"></path></svg>