<?xml version="1.0" standalone="no"?><!DOCTYPE svg PUBLIC "-//W3C//DTD SVG 1.1//EN" "http://www.w3.org/Graphics/SVG/1.1/DTD/svg11.dtd"><svg t="1525086154747" class="icon" style="" viewBox="0 0 1024 1024" version="1.1" xmlns="http://www.w3.org/2000/svg" p-id="4327" xmlns:xlink="http://www.w3.org/1999/xlink" width="22" height="22"><defs><style type="text/css"></style></defs><path d="M793.916049 447.525926V279.929453c0-153.5097-124.613757-278.123457-278.123456-278.123457H505.679012C352.169312 1.805996 227.555556 126.419753 227.555556 279.929453v167.596473H128.948148v575.029277h765.742505V447.525926h-100.774604z m-195.047619 469.559083h-173.73686l42.621516-186.017637c-25.283951-15.17037-42.621517-42.982716-42.621516-74.768254 0-48.039506 39.009524-86.687831 86.68783-86.687831 48.039506 0 86.687831 39.009524 86.687831 86.687831 0 31.785538-17.337566 59.597884-42.982716 74.768254l43.343915 186.017637z m55.624692-469.559083h-288.237037V279.929453c0-76.57425 62.487478-139.061728 139.061728-139.061728h10.47478c76.57425 0 139.061728 62.126279 139.061728 139.061728v167.596473h-0.361199z" fill="#F7C77F" p-id="4328"></path></svg>